<svg viewBox="0 0 180 180" xmlns="http://www.w3.org/2000/svg">
  <rect width="180" height="180" rx="45" fill="#4f46e5"/>
  
  <g fill="#ffffff">
    <path d="M95 28C92 25 93 20 97 18C101 16 106 18 107 22C108 26 104 29 101 27" stroke="#ffffff" stroke-width="3"/>
    <path d="M40 115C60 120 100 118 122 112L110 38C85 32 60 35 45 45L40 115Z" />
    <path d="M122 112L138 125L120 45L110 38L122 112Z" opacity="0.6"/>
    <path d="M65 120V150C65 162 95 162 95 150V120H65Z"/>
    <path d="M102 135C102 135 115 132 120 140C125 148 115 155 105 150"/>
    <ellipse cx="60" cy="78" rx="5" ry="9" fill="#4f46e5"/>
    <ellipse cx="85" cy="76" rx="5" ry="9" fill="#4f46e5"/>
  </g>
</svg>